<svg xmlns="http://www.w3.org/2000/svg" width="32" height="32">
    <path style="stroke:none;fill-rule:nonzero;fill:#000;fill-opacity:1" d="M25.332 25.332V6.668H6.668v18.664h18.664m0-21.332A2.669 2.669 0 0 1 28 6.668v18.664C28 26.812 26.8 28 25.332 28H6.668A2.669 2.669 0 0 1 4 25.332V6.668A2.669 2.669 0 0 1 6.668 4h18.664m-3.066 8.465L20.934 13.8l-2.735-2.735 1.336-1.332a.706.706 0 0 1 1.024 0l1.707 1.707a.706.706 0 0 1 0 1.024M9.332 19.922l8.082-8.082 2.746 2.746-8.082 8.082H9.332zm0 0"/>
</svg>
