<svg xmlns="http://www.w3.org/2000/svg" width="32" height="32">
    <path style="stroke:none;fill-rule:nonzero;fill:#000;fill-opacity:1" d="M23.281 6.668a16.593 16.593 0 0 1-.601 3.453l1.601 1.598c.547-1.598.89-3.293 1.012-5.051zM10.133 22.691c-1.133.32-2.293.524-3.465.602v1.988a20.734 20.734 0 0 0 5.066-1zM22 4h4.668C27.398 4 28 4.602 28 5.332 28 17.852 17.852 28 5.332 28 4.602 28 4 27.398 4 26.668v-4.656c0-.73.602-1.332 1.332-1.332 1.656 0 3.27-.266 4.762-.758a1.1 1.1 0 0 1 .414-.07c.344 0 .68.136.945.386l2.934 2.934a20.181 20.181 0 0 0 8.785-8.785l-2.934-2.934a1.347 1.347 0 0 1-.332-1.36 15.18 15.18 0 0 0 .762-4.761C20.668 4.602 21.266 4 22 4zm0 0"/>
</svg>
